# xmcd
#
# Track frame offsets:
#	150
#	15159
#	28335
#	36541
#	49691
#	61747
#	72506
#	86473
#	98512
#	106570
#	115851
#	129770
#
# Disc length: 1912
#
# Revision: 1
# Processed by: cddbd v1.5.1PL0 Copyright (c) Steve Scherf et al.
# Submitted via: dBpowerAMP V4.0
# Normalized: r0:TRMNUM
#
DISCID=8b07760c
DTITLE=Willie Nelson - The Great Willie Nelson
DYEAR=1900
DGENRE=Country
TTITLE0=And So Will You My Love
TTITLE1=I Just Don't Understand
TTITLE2=You Wouldn't Cross The Street To Say Goodbye
TTITLE3=You'll Always Have Someone
TTITLE4=Following Me Around
TTITLE5=Blame It On The Times
TTITLE6=So Much To Do
TTITLE7=End Of Understanding
TTITLE8=Things To Remember
TTITLE9=One Step Before Losing You
TTITLE10=Home Is Where You're Happy
TTITLE11=No Tomorrow In Sight
EXTD=2 CD Set_Madacy Entertainment Group Ltd._2004
EXTT0=
EXTT1=
EXTT2=
EXTT3=
EXTT4=
EXTT5=
EXTT6=
EXTT7=
EXTT8=
EXTT9=
EXTT10=
EXTT11=
PLAYORDER=
